<?xml version="1.0" encoding="utf-8"?>
<!-- Generator: Adobe Illustrator 18.0.0, SVG Export Plug-In . SVG Version: 6.00 Build 0)  -->
<!DOCTYPE svg PUBLIC "-//W3C//DTD SVG 1.1//EN" "http://www.w3.org/Graphics/SVG/1.1/DTD/svg11.dtd">
<svg version="1.1" id="Layer_2" xmlns="http://www.w3.org/2000/svg" xmlns:xlink="http://www.w3.org/1999/xlink" x="0px" y="0px"
	 viewBox="0 0 50 50" enable-background="new 0 0 50 50" xml:space="preserve">
<g id="XMLID_5_">
	<g>
		<path fill="#8DC0B9" d="M35.6,3.5c0,0,4.3,7-1.1,23.8c-3.8,11.8-8.9,17.3-11.5,19.5c1.8-2.7,5-9,5.4-20.9L35.6,3.5z"/>
		<path fill="#8DC0B9" d="M35.5,3.5L35.5,3.5l0.1,0l-7.3,22.4c0-0.4,0-0.8,0-1.2c0.1-5.1-0.4-9.2-1.1-12.4
			C31.5,5.1,35.5,3.5,35.5,3.5z"/>
		<path fill="#333333" d="M22.9,46.8c-0.8,1.1-1.3,1.6-1.3,1.6l-0.1,0.1l-0.1-0.1c0,0-0.1-0.1-0.3-0.4
			C21.5,47.9,22.1,47.5,22.9,46.8z"/>
		<path fill="#8DC0B9" d="M21.1,47.9l7.2-22.1c-0.4,11.9-3.6,18.2-5.4,20.9C22.1,47.5,21.5,47.9,21.1,47.9
			C21.2,48,21.2,48,21.1,47.9z"/>
		<path fill="#333333" d="M22.5,1.5c0,0,3.1,2.7,4.8,10.7c-1.7,2.8-3.4,6.4-4.9,11.2c-4.4,13.7-2.6,21.4-1.8,23.8
			c-1.7-2.5-5.2-9.4-5-22.8C16,6.7,22.4,1.5,22.4,1.5H22.5L22.5,1.5z"/>
		<path fill="#8DC0B9" d="M28.3,25.9l-7.2,22.1c-0.1-0.2-0.3-0.4-0.5-0.7c0,0,0,0,0,0c-0.8-2.4-2.7-10.1,1.8-23.8
			c1.5-4.8,3.3-8.4,4.9-11.2c0.7,3.2,1.2,7.3,1.1,12.4C28.4,25.1,28.3,25.5,28.3,25.9z"/>
		<path fill="#333333" d="M21.1,47.9C21.2,48,21.2,48,21.1,47.9c0,0.1,0,0.1,0,0.1L21.1,47.9z"/>
		<path fill="#333333" d="M21.1,48.1L21.1,48.1L21,48c0,0-0.1-0.3-0.3-0.8c0.2,0.3,0.4,0.5,0.5,0.7L21.1,48.1z"/>
	</g>
	<g>
		<path fill="none" stroke="#FFFFFF" stroke-miterlimit="10" d="M22.9,46.8c-0.8,1.1-1.3,1.6-1.3,1.6l-0.1,0.1l-0.1-0.1
			c0,0-0.1-0.1-0.3-0.4"/>
		<path fill="none" stroke="#FFFFFF" stroke-miterlimit="10" d="M20.6,47.2c-1.7-2.5-5.2-9.4-5-22.8C16,6.7,22.4,1.5,22.4,1.5
			l0.1-0.1l0.1,0.1c0,0,3.1,2.7,4.8,10.7"/>
		<path fill="none" stroke="#FFFFFF" stroke-miterlimit="10" d="M35.6,3.5c0,0,4.3,7-1.1,23.8c-3.8,11.8-8.9,17.3-11.5,19.5
			c-0.9,0.7-1.5,1.1-1.7,1.2c-0.1,0-0.1,0.1-0.1,0.1l-0.1,0L21,48c0,0-0.1-0.3-0.3-0.8c0,0,0,0,0,0c-0.8-2.4-2.7-10.1,1.8-23.8
			c1.5-4.8,3.3-8.4,4.9-11.2c4.2-7.1,8.2-8.7,8.2-8.7L35.6,3.5L35.6,3.5z"/>
		<polyline fill="none" stroke="#FFFFFF" stroke-miterlimit="10" points="35.6,3.5 28.3,25.9 21.1,47.9 21.1,48.1 		"/>
	</g>
</g>
</svg>
